<mxfile host="app.diagrams.net" agent="Mozilla/5.0 (X11; Ubuntu; Linux x86_64; rv:131.0) Gecko/20100101 Firefox/131.0" version="24.7.17">
  <diagram name="Page-1" id="FIl-sWWD70E8VAOOmgCv">
    <mxGraphModel dx="3607" dy="2239" grid="1" gridSize="10" guides="1" tooltips="1" connect="1" arrows="1" fold="1" page="1" pageScale="1" pageWidth="1920" pageHeight="1200" math="0" shadow="0">
      <root>
        <mxCell id="0" />
        <mxCell id="1" parent="0" />
        <mxCell id="vmsu6UBPR0Md5zAb4Nx8-29" value="RabbitMQ" style="shape=cylinder3;whiteSpace=wrap;html=1;boundedLbl=1;backgroundOutline=1;size=15;direction=south;fillColor=#fff2cc;strokeColor=#d6b656;" parent="1" vertex="1">
          <mxGeometry x="210" y="40" width="1270" height="520" as="geometry" />
        </mxCell>
        <mxCell id="vmsu6UBPR0Md5zAb4Nx8-17" value="" style="group" parent="1" vertex="1" connectable="0">
          <mxGeometry x="1010" y="790" width="500" height="440" as="geometry" />
        </mxCell>
        <mxCell id="vmsu6UBPR0Md5zAb4Nx8-42" value="" style="group" parent="vmsu6UBPR0Md5zAb4Nx8-17" vertex="1" connectable="0">
          <mxGeometry width="500" height="440" as="geometry" />
        </mxCell>
        <mxCell id="vmsu6UBPR0Md5zAb4Nx8-19" value="" style="verticalLabelPosition=bottom;verticalAlign=top;html=1;shape=hexagon;perimeter=hexagonPerimeter2;arcSize=6;size=0.27;fillColor=none;" parent="vmsu6UBPR0Md5zAb4Nx8-42" vertex="1">
          <mxGeometry width="500" height="440" as="geometry" />
        </mxCell>
        <mxCell id="vmsu6UBPR0Md5zAb4Nx8-18" value="" style="verticalLabelPosition=bottom;verticalAlign=top;html=1;shape=hexagon;perimeter=hexagonPerimeter2;arcSize=6;size=0.27;fillColor=none;" parent="vmsu6UBPR0Md5zAb4Nx8-42" vertex="1">
          <mxGeometry x="80" y="80" width="340" height="280" as="geometry" />
        </mxCell>
        <mxCell id="vmsu6UBPR0Md5zAb4Nx8-40" value="&lt;font style=&quot;font-size: 30px;&quot;&gt;Permit System&lt;br&gt;&lt;/font&gt;" style="text;html=1;align=center;verticalAlign=middle;whiteSpace=wrap;rounded=0;" parent="vmsu6UBPR0Md5zAb4Nx8-42" vertex="1">
          <mxGeometry x="220" y="205" width="60" height="30" as="geometry" />
        </mxCell>
        <mxCell id="vmsu6UBPR0Md5zAb4Nx8-59" style="edgeStyle=orthogonalEdgeStyle;rounded=0;orthogonalLoop=1;jettySize=auto;html=1;exitX=0.75;exitY=1;exitDx=0;exitDy=0;entryX=0;entryY=0.5;entryDx=0;entryDy=0;startArrow=classic;startFill=1;curved=1;" parent="vmsu6UBPR0Md5zAb4Nx8-42" source="vmsu6UBPR0Md5zAb4Nx8-47" target="vmsu6UBPR0Md5zAb4Nx8-52" edge="1">
          <mxGeometry relative="1" as="geometry" />
        </mxCell>
        <mxCell id="vmsu6UBPR0Md5zAb4Nx8-47" value="Permit Manager" style="rounded=1;whiteSpace=wrap;html=1;fillColor=#f8cecc;strokeColor=#b85450;" parent="vmsu6UBPR0Md5zAb4Nx8-42" vertex="1">
          <mxGeometry x="60" y="150" width="120" height="60" as="geometry" />
        </mxCell>
        <mxCell id="vmsu6UBPR0Md5zAb4Nx8-50" value="Permit Persistence" style="rounded=1;whiteSpace=wrap;html=1;fillColor=#f8cecc;strokeColor=#b85450;" parent="vmsu6UBPR0Md5zAb4Nx8-42" vertex="1">
          <mxGeometry x="320" y="230" width="120" height="60" as="geometry" />
        </mxCell>
        <mxCell id="vmsu6UBPR0Md5zAb4Nx8-60" style="edgeStyle=orthogonalEdgeStyle;rounded=0;orthogonalLoop=1;jettySize=auto;html=1;exitX=1;exitY=0.5;exitDx=0;exitDy=0;entryX=0.25;entryY=1;entryDx=0;entryDy=0;startArrow=classic;startFill=1;curved=1;" parent="vmsu6UBPR0Md5zAb4Nx8-42" source="vmsu6UBPR0Md5zAb4Nx8-52" target="vmsu6UBPR0Md5zAb4Nx8-50" edge="1">
          <mxGeometry relative="1" as="geometry" />
        </mxCell>
        <mxCell id="vmsu6UBPR0Md5zAb4Nx8-52" value="Validation Manager" style="ellipse;whiteSpace=wrap;html=1;fillColor=#f5f5f5;fontColor=#333333;strokeColor=#666666;" parent="vmsu6UBPR0Md5zAb4Nx8-42" vertex="1">
          <mxGeometry x="190" y="270" width="120" height="80" as="geometry" />
        </mxCell>
        <mxCell id="vmsu6UBPR0Md5zAb4Nx8-25" value="Database ORM" style="rounded=0;whiteSpace=wrap;html=1;fillColor=#ffe6cc;strokeColor=#d79b00;" parent="vmsu6UBPR0Md5zAb4Nx8-17" vertex="1">
          <mxGeometry x="380" y="300" width="120" height="60" as="geometry" />
        </mxCell>
        <mxCell id="vmsu6UBPR0Md5zAb4Nx8-58" style="edgeStyle=orthogonalEdgeStyle;rounded=0;orthogonalLoop=1;jettySize=auto;html=1;exitX=1;exitY=0.5;exitDx=0;exitDy=0;entryX=0.75;entryY=0;entryDx=0;entryDy=0;startArrow=classic;startFill=1;curved=1;" parent="vmsu6UBPR0Md5zAb4Nx8-17" source="vmsu6UBPR0Md5zAb4Nx8-22" target="vmsu6UBPR0Md5zAb4Nx8-47" edge="1">
          <mxGeometry relative="1" as="geometry" />
        </mxCell>
        <mxCell id="vmsu6UBPR0Md5zAb4Nx8-22" value="AMQP Receiver" style="rounded=0;whiteSpace=wrap;html=1;fillColor=#d5e8d4;strokeColor=#82b366;" parent="vmsu6UBPR0Md5zAb4Nx8-17" vertex="1">
          <mxGeometry y="80" width="120" height="60" as="geometry" />
        </mxCell>
        <mxCell id="vmsu6UBPR0Md5zAb4Nx8-61" style="edgeStyle=orthogonalEdgeStyle;rounded=0;orthogonalLoop=1;jettySize=auto;html=1;exitX=1;exitY=0.5;exitDx=0;exitDy=0;entryX=0.75;entryY=0;entryDx=0;entryDy=0;startArrow=classic;startFill=1;curved=1;" parent="vmsu6UBPR0Md5zAb4Nx8-17" source="vmsu6UBPR0Md5zAb4Nx8-50" target="vmsu6UBPR0Md5zAb4Nx8-25" edge="1">
          <mxGeometry relative="1" as="geometry" />
        </mxCell>
        <mxCell id="vmsu6UBPR0Md5zAb4Nx8-26" style="edgeStyle=orthogonalEdgeStyle;rounded=0;orthogonalLoop=1;jettySize=auto;html=1;exitX=0;exitY=0.5;exitDx=0;exitDy=0;exitPerimeter=0;entryX=1;entryY=0.5;entryDx=0;entryDy=0;startArrow=classic;startFill=1;curved=1;" parent="1" source="vmsu6UBPR0Md5zAb4Nx8-24" target="vmsu6UBPR0Md5zAb4Nx8-25" edge="1">
          <mxGeometry relative="1" as="geometry" />
        </mxCell>
        <mxCell id="vmsu6UBPR0Md5zAb4Nx8-24" value="MySQL" style="shape=cylinder3;whiteSpace=wrap;html=1;boundedLbl=1;backgroundOutline=1;size=15;fillColor=#fff2cc;strokeColor=#d6b656;" parent="1" vertex="1">
          <mxGeometry x="1570" y="1080" width="60" height="80" as="geometry" />
        </mxCell>
        <mxCell id="vmsu6UBPR0Md5zAb4Nx8-28" value="Validation &lt;br&gt;Request AMQP" style="shape=parallelogram;perimeter=parallelogramPerimeter;whiteSpace=wrap;html=1;fixedSize=1;fillColor=#dae8fc;strokeColor=#6c8ebf;" parent="1" vertex="1">
          <mxGeometry x="770" y="390" width="120" height="60" as="geometry" />
        </mxCell>
        <mxCell id="Ysz22S0v8aRPz6q7rdMf-16" style="edgeStyle=orthogonalEdgeStyle;rounded=0;orthogonalLoop=1;jettySize=auto;html=1;exitX=0;exitY=0.5;exitDx=0;exitDy=0;entryX=0.75;entryY=0;entryDx=0;entryDy=0;curved=1;" parent="1" source="vmsu6UBPR0Md5zAb4Nx8-30" target="vmsu6UBPR0Md5zAb4Nx8-85" edge="1">
          <mxGeometry relative="1" as="geometry" />
        </mxCell>
        <mxCell id="vmsu6UBPR0Md5zAb4Nx8-30" value="Validation&lt;br&gt; Response AMQP&lt;br&gt;via RPC" style="shape=parallelogram;perimeter=parallelogramPerimeter;whiteSpace=wrap;html=1;fixedSize=1;fillColor=#dae8fc;strokeColor=#6c8ebf;" parent="1" vertex="1">
          <mxGeometry x="770" y="490" width="120" height="60" as="geometry" />
        </mxCell>
        <mxCell id="vmsu6UBPR0Md5zAb4Nx8-70" value="" style="group" parent="1" vertex="1" connectable="0">
          <mxGeometry x="150" y="790" width="500" height="440" as="geometry" />
        </mxCell>
        <mxCell id="vmsu6UBPR0Md5zAb4Nx8-71" value="" style="group" parent="vmsu6UBPR0Md5zAb4Nx8-70" vertex="1" connectable="0">
          <mxGeometry width="500" height="440" as="geometry" />
        </mxCell>
        <mxCell id="vmsu6UBPR0Md5zAb4Nx8-72" value="" style="verticalLabelPosition=bottom;verticalAlign=top;html=1;shape=hexagon;perimeter=hexagonPerimeter2;arcSize=6;size=0.27;fillColor=none;" parent="vmsu6UBPR0Md5zAb4Nx8-71" vertex="1">
          <mxGeometry width="500" height="440" as="geometry" />
        </mxCell>
        <mxCell id="vmsu6UBPR0Md5zAb4Nx8-73" value="" style="verticalLabelPosition=bottom;verticalAlign=top;html=1;shape=hexagon;perimeter=hexagonPerimeter2;arcSize=6;size=0.27;fillColor=none;" parent="vmsu6UBPR0Md5zAb4Nx8-71" vertex="1">
          <mxGeometry x="80" y="80" width="340" height="280" as="geometry" />
        </mxCell>
        <mxCell id="ZMv95iw1XXXhdrj3KUTM-111" style="edgeStyle=orthogonalEdgeStyle;rounded=0;orthogonalLoop=1;jettySize=auto;html=1;exitX=1;exitY=0.25;exitDx=0;exitDy=0;entryX=0.75;entryY=1;entryDx=0;entryDy=0;curved=1;" edge="1" parent="vmsu6UBPR0Md5zAb4Nx8-71" source="vmsu6UBPR0Md5zAb4Nx8-77" target="vmsu6UBPR0Md5zAb4Nx8-85">
          <mxGeometry relative="1" as="geometry" />
        </mxCell>
        <mxCell id="vmsu6UBPR0Md5zAb4Nx8-77" value="Validation Reqiester" style="rounded=1;whiteSpace=wrap;html=1;fillColor=#f8cecc;strokeColor=#b85450;" parent="vmsu6UBPR0Md5zAb4Nx8-71" vertex="1">
          <mxGeometry x="320" y="120" width="120" height="60" as="geometry" />
        </mxCell>
        <mxCell id="ZMv95iw1XXXhdrj3KUTM-107" style="edgeStyle=orthogonalEdgeStyle;rounded=0;orthogonalLoop=1;jettySize=auto;html=1;exitX=1;exitY=1;exitDx=0;exitDy=0;entryX=0.75;entryY=0;entryDx=0;entryDy=0;curved=1;" edge="1" parent="vmsu6UBPR0Md5zAb4Nx8-71" source="vmsu6UBPR0Md5zAb4Nx8-79" target="ZMv95iw1XXXhdrj3KUTM-104">
          <mxGeometry relative="1" as="geometry" />
        </mxCell>
        <mxCell id="ZMv95iw1XXXhdrj3KUTM-109" style="edgeStyle=orthogonalEdgeStyle;rounded=0;orthogonalLoop=1;jettySize=auto;html=1;exitX=0.5;exitY=0;exitDx=0;exitDy=0;entryX=0.25;entryY=1;entryDx=0;entryDy=0;curved=1;" edge="1" parent="vmsu6UBPR0Md5zAb4Nx8-71" source="vmsu6UBPR0Md5zAb4Nx8-79" target="ZMv95iw1XXXhdrj3KUTM-38">
          <mxGeometry relative="1" as="geometry" />
        </mxCell>
        <mxCell id="ZMv95iw1XXXhdrj3KUTM-114" style="edgeStyle=orthogonalEdgeStyle;rounded=0;orthogonalLoop=1;jettySize=auto;html=1;exitX=1;exitY=0;exitDx=0;exitDy=0;entryX=0;entryY=0.5;entryDx=0;entryDy=0;curved=1;" edge="1" parent="vmsu6UBPR0Md5zAb4Nx8-71" source="vmsu6UBPR0Md5zAb4Nx8-79" target="Ysz22S0v8aRPz6q7rdMf-8">
          <mxGeometry relative="1" as="geometry">
            <Array as="points">
              <mxPoint x="310" y="282" />
              <mxPoint x="310" y="220" />
            </Array>
          </mxGeometry>
        </mxCell>
        <mxCell id="ZMv95iw1XXXhdrj3KUTM-116" style="edgeStyle=orthogonalEdgeStyle;rounded=0;orthogonalLoop=1;jettySize=auto;html=1;exitX=1;exitY=0.5;exitDx=0;exitDy=0;entryX=0;entryY=0.75;entryDx=0;entryDy=0;curved=1;" edge="1" parent="vmsu6UBPR0Md5zAb4Nx8-71" source="vmsu6UBPR0Md5zAb4Nx8-79" target="ZMv95iw1XXXhdrj3KUTM-113">
          <mxGeometry relative="1" as="geometry">
            <Array as="points">
              <mxPoint x="310" y="305" />
            </Array>
          </mxGeometry>
        </mxCell>
        <mxCell id="vmsu6UBPR0Md5zAb4Nx8-79" value="Entry Manager" style="ellipse;whiteSpace=wrap;html=1;fillColor=#f5f5f5;fontColor=#333333;strokeColor=#666666;" parent="vmsu6UBPR0Md5zAb4Nx8-71" vertex="1">
          <mxGeometry x="190" y="270" width="120" height="80" as="geometry" />
        </mxCell>
        <mxCell id="vmsu6UBPR0Md5zAb4Nx8-84" value="&lt;font style=&quot;font-size: 30px;&quot;&gt;Entry Control&lt;br&gt;&lt;/font&gt;" style="text;html=1;align=center;verticalAlign=middle;whiteSpace=wrap;rounded=0;" parent="vmsu6UBPR0Md5zAb4Nx8-71" vertex="1">
          <mxGeometry x="220" y="205" width="60" height="30" as="geometry" />
        </mxCell>
        <mxCell id="vmsu6UBPR0Md5zAb4Nx8-85" value="AMQP Client" style="rounded=0;whiteSpace=wrap;html=1;fillColor=#e1d5e7;strokeColor=#9673a6;" parent="vmsu6UBPR0Md5zAb4Nx8-71" vertex="1">
          <mxGeometry x="380" y="50" width="120" height="60" as="geometry" />
        </mxCell>
        <mxCell id="Ysz22S0v8aRPz6q7rdMf-5" style="edgeStyle=orthogonalEdgeStyle;rounded=0;orthogonalLoop=1;jettySize=auto;html=1;exitX=1;exitY=0.5;exitDx=0;exitDy=0;entryX=0.75;entryY=0;entryDx=0;entryDy=0;curved=1;" parent="vmsu6UBPR0Md5zAb4Nx8-71" source="Ysz22S0v8aRPz6q7rdMf-1" target="Ysz22S0v8aRPz6q7rdMf-4" edge="1">
          <mxGeometry relative="1" as="geometry" />
        </mxCell>
        <mxCell id="Ysz22S0v8aRPz6q7rdMf-1" value="Gate Transponder and Plate Reader" style="rounded=0;whiteSpace=wrap;html=1;fillColor=#d5e8d4;strokeColor=#82b366;" parent="vmsu6UBPR0Md5zAb4Nx8-71" vertex="1">
          <mxGeometry y="80" width="120" height="60" as="geometry" />
        </mxCell>
        <mxCell id="Ysz22S0v8aRPz6q7rdMf-6" style="edgeStyle=orthogonalEdgeStyle;rounded=0;orthogonalLoop=1;jettySize=auto;html=1;exitX=1;exitY=0.5;exitDx=0;exitDy=0;entryX=0;entryY=0;entryDx=0;entryDy=0;curved=1;" parent="vmsu6UBPR0Md5zAb4Nx8-71" source="Ysz22S0v8aRPz6q7rdMf-4" target="vmsu6UBPR0Md5zAb4Nx8-79" edge="1">
          <mxGeometry relative="1" as="geometry">
            <Array as="points">
              <mxPoint x="200" y="180" />
              <mxPoint x="200" y="270" />
              <mxPoint x="208" y="270" />
            </Array>
          </mxGeometry>
        </mxCell>
        <mxCell id="Ysz22S0v8aRPz6q7rdMf-4" value="Gate Communicator" style="rounded=1;whiteSpace=wrap;html=1;fillColor=#f8cecc;strokeColor=#b85450;" parent="vmsu6UBPR0Md5zAb4Nx8-71" vertex="1">
          <mxGeometry x="60" y="150" width="120" height="60" as="geometry" />
        </mxCell>
        <mxCell id="Ysz22S0v8aRPz6q7rdMf-7" style="edgeStyle=orthogonalEdgeStyle;rounded=0;orthogonalLoop=1;jettySize=auto;html=1;exitX=0;exitY=0.5;exitDx=0;exitDy=0;entryX=1;entryY=0;entryDx=0;entryDy=0;curved=1;startArrow=classic;startFill=1;" parent="vmsu6UBPR0Md5zAb4Nx8-71" source="vmsu6UBPR0Md5zAb4Nx8-77" target="vmsu6UBPR0Md5zAb4Nx8-79" edge="1">
          <mxGeometry relative="1" as="geometry">
            <Array as="points">
              <mxPoint x="300" y="150" />
              <mxPoint x="300" y="250" />
              <mxPoint x="292" y="250" />
            </Array>
          </mxGeometry>
        </mxCell>
        <mxCell id="Ysz22S0v8aRPz6q7rdMf-8" value="Gate Controller" style="rounded=1;whiteSpace=wrap;html=1;fillColor=#f8cecc;strokeColor=#b85450;" parent="vmsu6UBPR0Md5zAb4Nx8-71" vertex="1">
          <mxGeometry x="320" y="190" width="120" height="60" as="geometry" />
        </mxCell>
        <mxCell id="ZMv95iw1XXXhdrj3KUTM-38" value="Visitor Register" style="rounded=1;whiteSpace=wrap;html=1;fillColor=#f8cecc;strokeColor=#b85450;" vertex="1" parent="vmsu6UBPR0Md5zAb4Nx8-71">
          <mxGeometry x="240" y="50" width="120" height="60" as="geometry" />
        </mxCell>
        <mxCell id="ZMv95iw1XXXhdrj3KUTM-104" value="QR Issuer" style="rounded=1;whiteSpace=wrap;html=1;fillColor=#f8cecc;strokeColor=#b85450;" vertex="1" parent="vmsu6UBPR0Md5zAb4Nx8-71">
          <mxGeometry x="240" y="350" width="120" height="60" as="geometry" />
        </mxCell>
        <mxCell id="ZMv95iw1XXXhdrj3KUTM-117" style="edgeStyle=orthogonalEdgeStyle;rounded=0;orthogonalLoop=1;jettySize=auto;html=1;exitX=1;exitY=0.5;exitDx=0;exitDy=0;entryX=0.75;entryY=0;entryDx=0;entryDy=0;curved=1;" edge="1" parent="vmsu6UBPR0Md5zAb4Nx8-71" source="ZMv95iw1XXXhdrj3KUTM-113" target="ZMv95iw1XXXhdrj3KUTM-115">
          <mxGeometry relative="1" as="geometry" />
        </mxCell>
        <mxCell id="ZMv95iw1XXXhdrj3KUTM-113" value="Capacity Communicator" style="rounded=1;whiteSpace=wrap;html=1;fillColor=#f8cecc;strokeColor=#b85450;" vertex="1" parent="vmsu6UBPR0Md5zAb4Nx8-71">
          <mxGeometry x="320" y="260" width="120" height="60" as="geometry" />
        </mxCell>
        <mxCell id="ZMv95iw1XXXhdrj3KUTM-115" value="AMQP Client" style="rounded=0;whiteSpace=wrap;html=1;fillColor=#e1d5e7;strokeColor=#9673a6;" vertex="1" parent="vmsu6UBPR0Md5zAb4Nx8-71">
          <mxGeometry x="380" y="330" width="120" height="60" as="geometry" />
        </mxCell>
        <mxCell id="Ysz22S0v8aRPz6q7rdMf-12" style="edgeStyle=orthogonalEdgeStyle;rounded=0;orthogonalLoop=1;jettySize=auto;html=1;exitX=0.5;exitY=0;exitDx=0;exitDy=0;entryX=0;entryY=0.5;entryDx=0;entryDy=0;curved=1;" parent="1" source="vmsu6UBPR0Md5zAb4Nx8-85" target="vmsu6UBPR0Md5zAb4Nx8-28" edge="1">
          <mxGeometry relative="1" as="geometry">
            <Array as="points">
              <mxPoint x="590" y="420" />
            </Array>
          </mxGeometry>
        </mxCell>
        <mxCell id="Ysz22S0v8aRPz6q7rdMf-15" style="edgeStyle=orthogonalEdgeStyle;rounded=0;orthogonalLoop=1;jettySize=auto;html=1;exitX=0.25;exitY=0;exitDx=0;exitDy=0;entryX=1;entryY=0.5;entryDx=0;entryDy=0;curved=1;" parent="1" source="vmsu6UBPR0Md5zAb4Nx8-22" target="vmsu6UBPR0Md5zAb4Nx8-30" edge="1">
          <mxGeometry relative="1" as="geometry">
            <Array as="points">
              <mxPoint x="1040" y="520" />
            </Array>
          </mxGeometry>
        </mxCell>
        <mxCell id="Ysz22S0v8aRPz6q7rdMf-13" style="edgeStyle=orthogonalEdgeStyle;rounded=0;orthogonalLoop=1;jettySize=auto;html=1;exitX=1;exitY=0.5;exitDx=0;exitDy=0;entryX=0.5;entryY=0;entryDx=0;entryDy=0;curved=1;" parent="1" source="vmsu6UBPR0Md5zAb4Nx8-28" target="vmsu6UBPR0Md5zAb4Nx8-22" edge="1">
          <mxGeometry relative="1" as="geometry" />
        </mxCell>
        <mxCell id="ZMv95iw1XXXhdrj3KUTM-40" value="AMQP Client" style="rounded=0;whiteSpace=wrap;html=1;fillColor=#e1d5e7;strokeColor=#9673a6;" vertex="1" parent="1">
          <mxGeometry x="420" y="760" width="120" height="60" as="geometry" />
        </mxCell>
        <mxCell id="ZMv95iw1XXXhdrj3KUTM-41" style="edgeStyle=orthogonalEdgeStyle;rounded=0;orthogonalLoop=1;jettySize=auto;html=1;exitX=0.75;exitY=0;exitDx=0;exitDy=0;entryX=0.5;entryY=1;entryDx=0;entryDy=0;curved=1;startArrow=classic;startFill=1;" edge="1" parent="1" source="ZMv95iw1XXXhdrj3KUTM-38" target="ZMv95iw1XXXhdrj3KUTM-40">
          <mxGeometry relative="1" as="geometry" />
        </mxCell>
        <mxCell id="ZMv95iw1XXXhdrj3KUTM-42" value="" style="group" vertex="1" connectable="0" parent="1">
          <mxGeometry x="-230" y="-600" width="500" height="440" as="geometry" />
        </mxCell>
        <mxCell id="ZMv95iw1XXXhdrj3KUTM-43" value="" style="group" vertex="1" connectable="0" parent="ZMv95iw1XXXhdrj3KUTM-42">
          <mxGeometry width="500" height="440" as="geometry" />
        </mxCell>
        <mxCell id="ZMv95iw1XXXhdrj3KUTM-44" value="" style="verticalLabelPosition=bottom;verticalAlign=top;html=1;shape=hexagon;perimeter=hexagonPerimeter2;arcSize=6;size=0.27;fillColor=none;" vertex="1" parent="ZMv95iw1XXXhdrj3KUTM-43">
          <mxGeometry width="500" height="440" as="geometry" />
        </mxCell>
        <mxCell id="ZMv95iw1XXXhdrj3KUTM-45" value="" style="verticalLabelPosition=bottom;verticalAlign=top;html=1;shape=hexagon;perimeter=hexagonPerimeter2;arcSize=6;size=0.27;fillColor=none;" vertex="1" parent="ZMv95iw1XXXhdrj3KUTM-43">
          <mxGeometry x="80" y="80" width="340" height="280" as="geometry" />
        </mxCell>
        <mxCell id="ZMv95iw1XXXhdrj3KUTM-46" value="&lt;font style=&quot;font-size: 30px;&quot;&gt;Visitor System&lt;br&gt;&lt;/font&gt;" style="text;html=1;align=center;verticalAlign=middle;whiteSpace=wrap;rounded=0;" vertex="1" parent="ZMv95iw1XXXhdrj3KUTM-43">
          <mxGeometry x="220" y="205" width="60" height="30" as="geometry" />
        </mxCell>
        <mxCell id="ZMv95iw1XXXhdrj3KUTM-47" style="edgeStyle=orthogonalEdgeStyle;rounded=0;orthogonalLoop=1;jettySize=auto;html=1;exitX=0.75;exitY=1;exitDx=0;exitDy=0;entryX=0;entryY=0.5;entryDx=0;entryDy=0;startArrow=classic;startFill=1;curved=1;" edge="1" parent="ZMv95iw1XXXhdrj3KUTM-43" source="ZMv95iw1XXXhdrj3KUTM-48" target="ZMv95iw1XXXhdrj3KUTM-51">
          <mxGeometry relative="1" as="geometry" />
        </mxCell>
        <mxCell id="ZMv95iw1XXXhdrj3KUTM-48" value="Visitor Session Communicator" style="rounded=1;whiteSpace=wrap;html=1;fillColor=#f8cecc;strokeColor=#b85450;" vertex="1" parent="ZMv95iw1XXXhdrj3KUTM-43">
          <mxGeometry x="60" y="150" width="120" height="60" as="geometry" />
        </mxCell>
        <mxCell id="ZMv95iw1XXXhdrj3KUTM-49" value="Session Persistence" style="rounded=1;whiteSpace=wrap;html=1;fillColor=#f8cecc;strokeColor=#b85450;" vertex="1" parent="ZMv95iw1XXXhdrj3KUTM-43">
          <mxGeometry x="320" y="230" width="120" height="60" as="geometry" />
        </mxCell>
        <mxCell id="ZMv95iw1XXXhdrj3KUTM-50" style="edgeStyle=orthogonalEdgeStyle;rounded=0;orthogonalLoop=1;jettySize=auto;html=1;exitX=1;exitY=0.5;exitDx=0;exitDy=0;entryX=0.25;entryY=1;entryDx=0;entryDy=0;startArrow=classic;startFill=1;curved=1;" edge="1" parent="ZMv95iw1XXXhdrj3KUTM-43" source="ZMv95iw1XXXhdrj3KUTM-51" target="ZMv95iw1XXXhdrj3KUTM-49">
          <mxGeometry relative="1" as="geometry" />
        </mxCell>
        <mxCell id="ZMv95iw1XXXhdrj3KUTM-51" value="Visitor Session Manager" style="ellipse;whiteSpace=wrap;html=1;fillColor=#f5f5f5;fontColor=#333333;strokeColor=#666666;" vertex="1" parent="ZMv95iw1XXXhdrj3KUTM-43">
          <mxGeometry x="190" y="270" width="120" height="80" as="geometry" />
        </mxCell>
        <mxCell id="ZMv95iw1XXXhdrj3KUTM-52" value="Database ORM" style="rounded=0;whiteSpace=wrap;html=1;fillColor=#ffe6cc;strokeColor=#d79b00;" vertex="1" parent="ZMv95iw1XXXhdrj3KUTM-42">
          <mxGeometry x="380" y="300" width="120" height="60" as="geometry" />
        </mxCell>
        <mxCell id="ZMv95iw1XXXhdrj3KUTM-53" style="edgeStyle=orthogonalEdgeStyle;rounded=0;orthogonalLoop=1;jettySize=auto;html=1;exitX=1;exitY=0.5;exitDx=0;exitDy=0;entryX=0.75;entryY=0;entryDx=0;entryDy=0;startArrow=classic;startFill=1;curved=1;" edge="1" parent="ZMv95iw1XXXhdrj3KUTM-42" source="ZMv95iw1XXXhdrj3KUTM-54" target="ZMv95iw1XXXhdrj3KUTM-48">
          <mxGeometry relative="1" as="geometry" />
        </mxCell>
        <mxCell id="ZMv95iw1XXXhdrj3KUTM-54" value="AMQP Receiver" style="rounded=0;whiteSpace=wrap;html=1;fillColor=#d5e8d4;strokeColor=#82b366;" vertex="1" parent="ZMv95iw1XXXhdrj3KUTM-42">
          <mxGeometry y="80" width="120" height="60" as="geometry" />
        </mxCell>
        <mxCell id="ZMv95iw1XXXhdrj3KUTM-55" style="edgeStyle=orthogonalEdgeStyle;rounded=0;orthogonalLoop=1;jettySize=auto;html=1;exitX=1;exitY=0.5;exitDx=0;exitDy=0;entryX=0.75;entryY=0;entryDx=0;entryDy=0;startArrow=classic;startFill=1;curved=1;" edge="1" parent="ZMv95iw1XXXhdrj3KUTM-42" source="ZMv95iw1XXXhdrj3KUTM-49" target="ZMv95iw1XXXhdrj3KUTM-52">
          <mxGeometry relative="1" as="geometry" />
        </mxCell>
        <mxCell id="ZMv95iw1XXXhdrj3KUTM-56" value="MySQL" style="shape=cylinder3;whiteSpace=wrap;html=1;boundedLbl=1;backgroundOutline=1;size=15;fillColor=#fff2cc;strokeColor=#d6b656;" vertex="1" parent="1">
          <mxGeometry x="340" y="-310" width="60" height="80" as="geometry" />
        </mxCell>
        <mxCell id="ZMv95iw1XXXhdrj3KUTM-57" style="edgeStyle=orthogonalEdgeStyle;rounded=0;orthogonalLoop=1;jettySize=auto;html=1;exitX=1;exitY=0.5;exitDx=0;exitDy=0;entryX=0;entryY=0.5;entryDx=0;entryDy=0;entryPerimeter=0;startArrow=classic;startFill=1;" edge="1" parent="1" source="ZMv95iw1XXXhdrj3KUTM-52" target="ZMv95iw1XXXhdrj3KUTM-56">
          <mxGeometry relative="1" as="geometry" />
        </mxCell>
        <mxCell id="ZMv95iw1XXXhdrj3KUTM-72" value="" style="group" vertex="1" connectable="0" parent="1">
          <mxGeometry x="1320" y="-600" width="500" height="440" as="geometry" />
        </mxCell>
        <mxCell id="ZMv95iw1XXXhdrj3KUTM-73" value="" style="group" vertex="1" connectable="0" parent="ZMv95iw1XXXhdrj3KUTM-72">
          <mxGeometry width="500" height="440" as="geometry" />
        </mxCell>
        <mxCell id="ZMv95iw1XXXhdrj3KUTM-74" value="" style="verticalLabelPosition=bottom;verticalAlign=top;html=1;shape=hexagon;perimeter=hexagonPerimeter2;arcSize=6;size=0.27;fillColor=none;" vertex="1" parent="ZMv95iw1XXXhdrj3KUTM-73">
          <mxGeometry width="500" height="440" as="geometry" />
        </mxCell>
        <mxCell id="ZMv95iw1XXXhdrj3KUTM-75" value="" style="verticalLabelPosition=bottom;verticalAlign=top;html=1;shape=hexagon;perimeter=hexagonPerimeter2;arcSize=6;size=0.27;fillColor=none;" vertex="1" parent="ZMv95iw1XXXhdrj3KUTM-73">
          <mxGeometry x="80" y="80" width="340" height="280" as="geometry" />
        </mxCell>
        <mxCell id="ZMv95iw1XXXhdrj3KUTM-76" value="&lt;font style=&quot;font-size: 30px;&quot;&gt;Parking Statistics&lt;br&gt;&lt;/font&gt;" style="text;html=1;align=center;verticalAlign=middle;whiteSpace=wrap;rounded=0;" vertex="1" parent="ZMv95iw1XXXhdrj3KUTM-73">
          <mxGeometry x="220" y="205" width="60" height="30" as="geometry" />
        </mxCell>
        <mxCell id="ZMv95iw1XXXhdrj3KUTM-141" style="edgeStyle=orthogonalEdgeStyle;rounded=0;orthogonalLoop=1;jettySize=auto;html=1;exitX=1;exitY=0.5;exitDx=0;exitDy=0;entryX=0.25;entryY=1;entryDx=0;entryDy=0;curved=1;startArrow=classic;startFill=1;" edge="1" parent="ZMv95iw1XXXhdrj3KUTM-73" source="ZMv95iw1XXXhdrj3KUTM-81" target="ZMv95iw1XXXhdrj3KUTM-137">
          <mxGeometry relative="1" as="geometry" />
        </mxCell>
        <mxCell id="ZMv95iw1XXXhdrj3KUTM-81" value="Statistics Manager" style="ellipse;whiteSpace=wrap;html=1;fillColor=#f5f5f5;fontColor=#333333;strokeColor=#666666;" vertex="1" parent="ZMv95iw1XXXhdrj3KUTM-73">
          <mxGeometry x="190" y="270" width="120" height="80" as="geometry" />
        </mxCell>
        <mxCell id="ZMv95iw1XXXhdrj3KUTM-137" value="Data Persistence" style="rounded=1;whiteSpace=wrap;html=1;fillColor=#f8cecc;strokeColor=#b85450;" vertex="1" parent="ZMv95iw1XXXhdrj3KUTM-73">
          <mxGeometry x="320" y="235" width="120" height="60" as="geometry" />
        </mxCell>
        <mxCell id="ZMv95iw1XXXhdrj3KUTM-86" value="" style="group" vertex="1" connectable="0" parent="1">
          <mxGeometry x="-470" y="80" width="500" height="440" as="geometry" />
        </mxCell>
        <mxCell id="ZMv95iw1XXXhdrj3KUTM-87" value="" style="group" vertex="1" connectable="0" parent="ZMv95iw1XXXhdrj3KUTM-86">
          <mxGeometry width="500" height="440" as="geometry" />
        </mxCell>
        <mxCell id="ZMv95iw1XXXhdrj3KUTM-88" value="" style="verticalLabelPosition=bottom;verticalAlign=top;html=1;shape=hexagon;perimeter=hexagonPerimeter2;arcSize=6;size=0.27;fillColor=none;" vertex="1" parent="ZMv95iw1XXXhdrj3KUTM-87">
          <mxGeometry width="500" height="440" as="geometry" />
        </mxCell>
        <mxCell id="ZMv95iw1XXXhdrj3KUTM-89" value="" style="verticalLabelPosition=bottom;verticalAlign=top;html=1;shape=hexagon;perimeter=hexagonPerimeter2;arcSize=6;size=0.27;fillColor=none;" vertex="1" parent="ZMv95iw1XXXhdrj3KUTM-87">
          <mxGeometry x="80" y="80" width="340" height="280" as="geometry" />
        </mxCell>
        <mxCell id="ZMv95iw1XXXhdrj3KUTM-90" value="&lt;font style=&quot;font-size: 30px;&quot;&gt;Exit Control&lt;br&gt;&lt;/font&gt;" style="text;html=1;align=center;verticalAlign=middle;whiteSpace=wrap;rounded=0;" vertex="1" parent="ZMv95iw1XXXhdrj3KUTM-87">
          <mxGeometry x="220" y="205" width="60" height="30" as="geometry" />
        </mxCell>
        <mxCell id="ZMv95iw1XXXhdrj3KUTM-91" value="Exit Manager" style="ellipse;whiteSpace=wrap;html=1;fillColor=#f5f5f5;fontColor=#333333;strokeColor=#666666;" vertex="1" parent="ZMv95iw1XXXhdrj3KUTM-87">
          <mxGeometry x="190" y="270" width="120" height="80" as="geometry" />
        </mxCell>
        <mxCell id="ZMv95iw1XXXhdrj3KUTM-92" value="" style="group" vertex="1" connectable="0" parent="1">
          <mxGeometry x="1670" y="80" width="500" height="440" as="geometry" />
        </mxCell>
        <mxCell id="ZMv95iw1XXXhdrj3KUTM-93" value="" style="group" vertex="1" connectable="0" parent="ZMv95iw1XXXhdrj3KUTM-92">
          <mxGeometry width="500" height="440" as="geometry" />
        </mxCell>
        <mxCell id="ZMv95iw1XXXhdrj3KUTM-94" value="" style="verticalLabelPosition=bottom;verticalAlign=top;html=1;shape=hexagon;perimeter=hexagonPerimeter2;arcSize=6;size=0.27;fillColor=none;" vertex="1" parent="ZMv95iw1XXXhdrj3KUTM-93">
          <mxGeometry width="500" height="440" as="geometry" />
        </mxCell>
        <mxCell id="ZMv95iw1XXXhdrj3KUTM-95" value="" style="verticalLabelPosition=bottom;verticalAlign=top;html=1;shape=hexagon;perimeter=hexagonPerimeter2;arcSize=6;size=0.27;fillColor=none;" vertex="1" parent="ZMv95iw1XXXhdrj3KUTM-93">
          <mxGeometry x="80" y="80" width="340" height="280" as="geometry" />
        </mxCell>
        <mxCell id="ZMv95iw1XXXhdrj3KUTM-96" value="&lt;font style=&quot;font-size: 30px;&quot;&gt;Infraction System&lt;br&gt;&lt;/font&gt;" style="text;html=1;align=center;verticalAlign=middle;whiteSpace=wrap;rounded=0;" vertex="1" parent="ZMv95iw1XXXhdrj3KUTM-93">
          <mxGeometry x="220" y="205" width="60" height="30" as="geometry" />
        </mxCell>
        <mxCell id="ZMv95iw1XXXhdrj3KUTM-97" value="Infraction Manager" style="ellipse;whiteSpace=wrap;html=1;fillColor=#f5f5f5;fontColor=#333333;strokeColor=#666666;" vertex="1" parent="ZMv95iw1XXXhdrj3KUTM-93">
          <mxGeometry x="190" y="270" width="120" height="80" as="geometry" />
        </mxCell>
        <mxCell id="ZMv95iw1XXXhdrj3KUTM-98" value="" style="group" vertex="1" connectable="0" parent="1">
          <mxGeometry x="580" y="-600" width="500" height="440" as="geometry" />
        </mxCell>
        <mxCell id="ZMv95iw1XXXhdrj3KUTM-99" value="" style="group" vertex="1" connectable="0" parent="ZMv95iw1XXXhdrj3KUTM-98">
          <mxGeometry width="500" height="440" as="geometry" />
        </mxCell>
        <mxCell id="ZMv95iw1XXXhdrj3KUTM-100" value="" style="verticalLabelPosition=bottom;verticalAlign=top;html=1;shape=hexagon;perimeter=hexagonPerimeter2;arcSize=6;size=0.27;fillColor=none;" vertex="1" parent="ZMv95iw1XXXhdrj3KUTM-99">
          <mxGeometry width="500" height="440" as="geometry" />
        </mxCell>
        <mxCell id="ZMv95iw1XXXhdrj3KUTM-101" value="" style="verticalLabelPosition=bottom;verticalAlign=top;html=1;shape=hexagon;perimeter=hexagonPerimeter2;arcSize=6;size=0.27;fillColor=none;" vertex="1" parent="ZMv95iw1XXXhdrj3KUTM-99">
          <mxGeometry x="80" y="80" width="340" height="280" as="geometry" />
        </mxCell>
        <mxCell id="ZMv95iw1XXXhdrj3KUTM-102" value="&lt;font style=&quot;font-size: 30px;&quot;&gt;Capacity Tracking&lt;br&gt;&lt;/font&gt;" style="text;html=1;align=center;verticalAlign=middle;whiteSpace=wrap;rounded=0;" vertex="1" parent="ZMv95iw1XXXhdrj3KUTM-99">
          <mxGeometry x="220" y="205" width="60" height="30" as="geometry" />
        </mxCell>
        <mxCell id="ZMv95iw1XXXhdrj3KUTM-138" style="edgeStyle=orthogonalEdgeStyle;rounded=0;orthogonalLoop=1;jettySize=auto;html=1;exitX=1;exitY=0.5;exitDx=0;exitDy=0;entryX=0.25;entryY=1;entryDx=0;entryDy=0;curved=1;startArrow=classic;startFill=1;" edge="1" parent="ZMv95iw1XXXhdrj3KUTM-99" source="ZMv95iw1XXXhdrj3KUTM-103" target="ZMv95iw1XXXhdrj3KUTM-132">
          <mxGeometry relative="1" as="geometry" />
        </mxCell>
        <mxCell id="ZMv95iw1XXXhdrj3KUTM-103" value="Capacity Manager" style="ellipse;whiteSpace=wrap;html=1;fillColor=#f5f5f5;fontColor=#333333;strokeColor=#666666;" vertex="1" parent="ZMv95iw1XXXhdrj3KUTM-99">
          <mxGeometry x="190" y="270" width="120" height="80" as="geometry" />
        </mxCell>
        <mxCell id="ZMv95iw1XXXhdrj3KUTM-139" style="edgeStyle=orthogonalEdgeStyle;rounded=0;orthogonalLoop=1;jettySize=auto;html=1;exitX=1;exitY=0.5;exitDx=0;exitDy=0;entryX=0.75;entryY=0;entryDx=0;entryDy=0;curved=1;startArrow=classic;startFill=1;" edge="1" parent="ZMv95iw1XXXhdrj3KUTM-99" source="ZMv95iw1XXXhdrj3KUTM-132" target="ZMv95iw1XXXhdrj3KUTM-133">
          <mxGeometry relative="1" as="geometry" />
        </mxCell>
        <mxCell id="ZMv95iw1XXXhdrj3KUTM-132" value="Data Persistence" style="rounded=1;whiteSpace=wrap;html=1;fillColor=#f8cecc;strokeColor=#b85450;" vertex="1" parent="ZMv95iw1XXXhdrj3KUTM-99">
          <mxGeometry x="320" y="235" width="120" height="60" as="geometry" />
        </mxCell>
        <mxCell id="ZMv95iw1XXXhdrj3KUTM-133" value="Database ORM" style="rounded=0;whiteSpace=wrap;html=1;fillColor=#ffe6cc;strokeColor=#d79b00;" vertex="1" parent="ZMv95iw1XXXhdrj3KUTM-99">
          <mxGeometry x="370" y="310" width="120" height="60" as="geometry" />
        </mxCell>
        <mxCell id="ZMv95iw1XXXhdrj3KUTM-105" value="Gate Printer" style="rounded=0;whiteSpace=wrap;html=1;fillColor=#e1d5e7;strokeColor=#9673a6;" vertex="1" parent="1">
          <mxGeometry x="440" y="1210" width="120" height="60" as="geometry" />
        </mxCell>
        <mxCell id="ZMv95iw1XXXhdrj3KUTM-108" style="edgeStyle=orthogonalEdgeStyle;rounded=0;orthogonalLoop=1;jettySize=auto;html=1;exitX=1;exitY=0.5;exitDx=0;exitDy=0;entryX=0.75;entryY=0;entryDx=0;entryDy=0;curved=1;" edge="1" parent="1" source="ZMv95iw1XXXhdrj3KUTM-104" target="ZMv95iw1XXXhdrj3KUTM-105">
          <mxGeometry relative="1" as="geometry" />
        </mxCell>
        <mxCell id="Ysz22S0v8aRPz6q7rdMf-2" value="Gate Actuator" style="rounded=0;whiteSpace=wrap;html=1;fillColor=#e1d5e7;strokeColor=#9673a6;" parent="1" vertex="1">
          <mxGeometry x="630" y="980" width="120" height="60" as="geometry" />
        </mxCell>
        <mxCell id="ZMv95iw1XXXhdrj3KUTM-112" style="edgeStyle=orthogonalEdgeStyle;rounded=0;orthogonalLoop=1;jettySize=auto;html=1;exitX=1;exitY=0.5;exitDx=0;exitDy=0;entryX=0;entryY=0.5;entryDx=0;entryDy=0;" edge="1" parent="1" source="Ysz22S0v8aRPz6q7rdMf-8" target="Ysz22S0v8aRPz6q7rdMf-2">
          <mxGeometry relative="1" as="geometry" />
        </mxCell>
        <mxCell id="ZMv95iw1XXXhdrj3KUTM-134" value="MySQL" style="shape=cylinder3;whiteSpace=wrap;html=1;boundedLbl=1;backgroundOutline=1;size=15;fillColor=#fff2cc;strokeColor=#d6b656;" vertex="1" parent="1">
          <mxGeometry x="1110" y="-300" width="60" height="80" as="geometry" />
        </mxCell>
        <mxCell id="ZMv95iw1XXXhdrj3KUTM-135" value="Database ORM" style="rounded=0;whiteSpace=wrap;html=1;fillColor=#ffe6cc;strokeColor=#d79b00;" vertex="1" parent="1">
          <mxGeometry x="1690" y="-290" width="120" height="60" as="geometry" />
        </mxCell>
        <mxCell id="ZMv95iw1XXXhdrj3KUTM-136" value="MySQL" style="shape=cylinder3;whiteSpace=wrap;html=1;boundedLbl=1;backgroundOutline=1;size=15;fillColor=#fff2cc;strokeColor=#d6b656;" vertex="1" parent="1">
          <mxGeometry x="1850" y="-300" width="60" height="80" as="geometry" />
        </mxCell>
        <mxCell id="ZMv95iw1XXXhdrj3KUTM-140" style="edgeStyle=orthogonalEdgeStyle;rounded=0;orthogonalLoop=1;jettySize=auto;html=1;exitX=1;exitY=0.5;exitDx=0;exitDy=0;entryX=0;entryY=0.5;entryDx=0;entryDy=0;entryPerimeter=0;startArrow=classic;startFill=1;" edge="1" parent="1" source="ZMv95iw1XXXhdrj3KUTM-133" target="ZMv95iw1XXXhdrj3KUTM-134">
          <mxGeometry relative="1" as="geometry" />
        </mxCell>
        <mxCell id="ZMv95iw1XXXhdrj3KUTM-142" style="edgeStyle=orthogonalEdgeStyle;rounded=0;orthogonalLoop=1;jettySize=auto;html=1;exitX=1;exitY=0.5;exitDx=0;exitDy=0;entryX=0.75;entryY=0;entryDx=0;entryDy=0;curved=1;startArrow=classic;startFill=1;" edge="1" parent="1" source="ZMv95iw1XXXhdrj3KUTM-137" target="ZMv95iw1XXXhdrj3KUTM-135">
          <mxGeometry relative="1" as="geometry" />
        </mxCell>
        <mxCell id="ZMv95iw1XXXhdrj3KUTM-143" style="edgeStyle=orthogonalEdgeStyle;rounded=0;orthogonalLoop=1;jettySize=auto;html=1;exitX=1;exitY=0.5;exitDx=0;exitDy=0;entryX=0;entryY=0.5;entryDx=0;entryDy=0;entryPerimeter=0;startArrow=classic;startFill=1;" edge="1" parent="1" source="ZMv95iw1XXXhdrj3KUTM-135" target="ZMv95iw1XXXhdrj3KUTM-136">
          <mxGeometry relative="1" as="geometry" />
        </mxCell>
      </root>
    </mxGraphModel>
  </diagram>
</mxfile>
